SIPNOSIS

Han pasado cinco años desde el momento en el que Katie desapareció misteriosamente después de sufrir los violentos ataques de una peligrosa entidad paranormal. Ahora, en otro vecindario, una familia comienza a ser testigo y víctima de una serie de horribles sucesos que, por coincidencia, han empezado a ocurrir desde que una mujer y un misterioso pequeñito se mudaron cerca. La actividad se torna cada vez más intensa y aterradora con cada hora que pasa y que es registrada por varias cámaras alrededor de la casa de la inocente familia


DATOS TECNICOS

Format : Matroska
Format version : Version 4 / Version 2
File size : 4.78 GiB
Duration : 1h 36mn
Overall bit rate : 7 082 Kbps
Encoded date : UTC 2010-02-22 21:41:31
Writing application : mkvmerge v5.9.0 ('On The Loose') built on Dec 9 2012 15:37:01
Writing library : libebml v1.3.0 + libmatroska v1.4.0

Video
ID : 1
Format : AVC
Format/Info : Advanced Video Codec
Format profile : High@L4.1
Format settings, CABAC : Yes
Format settings, ReFrames : 5 frames
Muxing mode : Header stripping
Codec ID : V_MPEG4/ISO/AVC
Bit rate : 4 956 Kbps
Width : 1 280 pixels
Height : 720 pixels
Display aspect ratio : 16:9
Frame rate mode : Variable
Original frame rate : 23.976 fps
Color space : YUV
Chroma subsampling : 4:2:0
Bit depth : 8 bits
Scan type : Progressive
Bits/(Pixel*Frame) : 0.224
Writing library : x264 core 129 r2245 bc13772
Encoding settings : cabac=1 / ref=5 / deblock=1:0:0 / analyse=0x3:0x133 / me=umh / subme=7 / psy=1 / psy_rd=1.00:0.00 / mixed_ref=1 / me_range=16 / chroma_me=1 / trellis=1 / 8x8dct=1 / cqm=0 / deadzone=21,11 / fast_pskip=0 / chroma_qp_offset=-2 / threads=12 / lookahead_threads=2 / sliced_threads=0 / nr=0 / decimate=1 / interlaced=0 / bluray_compat=0 / constrained_intra=0 / bframes=3 / b_pyramid=2 / b_adapt=1 / b_bias=0 / direct=1 / weightb=1 / open_gop=0 / weightp=2 / keyint=250 / keyint_min=23 / scenecut=40 / intra_refresh=0 / rc_lookahead=40 / rc=2pass / mbtree=1 / bitrate=4956 / ratetol=1.0 / qcomp=0.60 / qpmin=0 / qpmax=69 / qpstep=4 / cplxblur=20.0 / qblur=0.5 / ip_ratio=1.40 / aq=1:1.00
Language : English
Default : Yes
Forced : No

Audio #1
ID : 2
Format : AC-3
Format/Info : Audio Coding 3
Mode extension : CM (complete main)
Format settings, Endianness : Big
Muxing mode : Header stripping
Codec ID : A_AC3
Duration : 1h 36mn
Bit rate mode : Constant
Bit rate : 640 Kbps
Channel(s) : 6 channels
Channel positions : Front: L C R, Side: L R, LFE
Sampling rate : 48.0 KHz
Bit depth : 16 bits
Compression mode : Lossy
Stream size : 443 MiB (9%)
Title : Español Latino
Language : Spanish
Default : Yes
Forced : No

Audio #2
ID : 3
Format : DTS
Format/Info : Digital Theater Systems
Muxing mode : Header stripping
Codec ID : A_DTS
Duration : 1h 36mn
Bit rate mode : Constant
Bit rate : 1 510 Kbps
Channel(s) : 6 channels
Channel positions : Front: L C R, Side: L R, LFE
Sampling rate : 48.0 KHz
Bit depth : 24 bits
Compression mode : Lossy
Stream size : 1.02 GiB (21%)
Language : English
Default : No
Forced : No

Text #1
ID : 4
Format : UTF-8
Codec ID : S_TEXT/UTF8
Codec ID/Info : UTF-8 Plain Text
Title : Sub Forzado
Language : Spanish
Default : Yes
Forced : Yes

Text #2
ID : 5
Format : UTF-8
Codec ID : S_TEXT/UTF8
Codec ID/Info : UTF-8 Plain Text
Language : English
Default : No
Forced : No

Text #3
ID : 6
Format : UTF-8
Codec ID : S_TEXT/UTF8
Codec ID/Info : UTF-8 Plain Text
Language : English
Default : No
Forced : No

Menu
00:00:00.000 : en:00:00:00.000
00:11:58.343 : en:00:11:58.343
00:24:36.475 : en:00:24:36.475
00:31:12.078 : en:00:31:12.078
00:34:09.047 : en:00:34:09.047
00:40:50.448 : en:00:40:50.448
00:44:05.059 : en:00:44:05.059
00:46:10.768 : en:00:46:10.768
00:55:44.341 : en:00:55:44.341
01:00:02.599 : en:01:00:02.599
01:04:09.262 : en:01:04:09.262
01:11:46.302 : en:01:11:46.302
01:16:00.556 : en:01:16:00.556
01:22:23.564 : en:01:22:23.564
01:32:08.815 : en:01:32:08.815 